<?xml version="1.0" encoding="UTF-8" standalone="no"?>
<!-- Created with Inkscape (http://www.inkscape.org/) -->

<svg
   xmlns:dc="http://purl.org/dc/elements/1.1/"
   xmlns:cc="http://creativecommons.org/ns#"
   xmlns:rdf="http://www.w3.org/1999/02/22-rdf-syntax-ns#"
   xmlns:svg="http://www.w3.org/2000/svg"
   xmlns="http://www.w3.org/2000/svg"
   xmlns:sodipodi="http://sodipodi.sourceforge.net/DTD/sodipodi-0.dtd"
   xmlns:inkscape="http://www.inkscape.org/namespaces/inkscape"
   id="svg4206"
   version="1.1"
   inkscape:version="0.91 r13725"
   width="1225.1862"
   height="656.31256"
   viewBox="0 0 1225.1862 656.31257"
   sodipodi:docname="banner-1.svg"
   inkscape:export-filename="/home/kyle/Desktop/CFBR/img/banner-4.png"
   inkscape:export-xdpi="86.349998"
   inkscape:export-ydpi="86.349998">
  <metadata
     id="metadata4212">
    <rdf:RDF>
      <cc:Work
         rdf:about="">
        <dc:format>image/svg+xml</dc:format>
        <dc:type
           rdf:resource="http://purl.org/dc/dcmitype/StillImage" />
        <dc:title></dc:title>
      </cc:Work>
    </rdf:RDF>
  </metadata>
  <defs
     id="defs4210">
    <filter
       style="color-interpolation-filters:sRGB"
       inkscape:label="Drop Shadow"
       id="filter4459">
      <feFlood
         flood-opacity="1"
         flood-color="rgb(169,169,169)"
         result="flood"
         id="feFlood4461" />
      <feComposite
         in="flood"
         in2="SourceGraphic"
         operator="out"
         result="composite1"
         id="feComposite4463" />
      <feGaussianBlur
         in="composite1"
         stdDeviation="5"
         result="blur"
         id="feGaussianBlur4465" />
      <feOffset
         dx="-15"
         dy="15"
         result="offset"
         id="feOffset4467" />
      <feComposite
         in="offset"
         in2="SourceGraphic"
         operator="in"
         result="composite2"
         id="feComposite4469" />
    </filter>
    <filter
       style="color-interpolation-filters:sRGB"
       inkscape:label="Drop Shadow"
       id="filter5218">
      <feFlood
         flood-opacity="1"
         flood-color="rgb(191,26,16)"
         result="flood"
         id="feFlood5220" />
      <feComposite
         in="flood"
         in2="SourceGraphic"
         operator="out"
         result="composite1"
         id="feComposite5222" />
      <feGaussianBlur
         in="composite1"
         stdDeviation="5"
         result="blur"
         id="feGaussianBlur5224" />
      <feOffset
         dx="-10"
         dy="10"
         result="offset"
         id="feOffset5226" />
      <feComposite
         in="offset"
         in2="SourceGraphic"
         operator="in"
         result="composite2"
         id="feComposite5228" />
    </filter>
  </defs>
  <sodipodi:namedview
     pagecolor="#ffffff"
     bordercolor="#666666"
     borderopacity="1"
     objecttolerance="10"
     gridtolerance="10"
     guidetolerance="10"
     inkscape:pageopacity="0"
     inkscape:pageshadow="2"
     inkscape:window-width="1855"
     inkscape:window-height="1056"
     id="namedview4208"
     showgrid="false"
     inkscape:zoom="0.5"
     inkscape:cx="790.24264"
     inkscape:cy="359.09589"
     inkscape:window-x="65"
     inkscape:window-y="24"
     inkscape:window-maximized="1"
     inkscape:current-layer="svg4206"
     fit-margin-top="0"
     fit-margin-left="0"
     fit-margin-right="0"
     fit-margin-bottom="0" />
  <flowRoot
     xml:space="preserve"
     id="flowRoot4384"
     style="font-style:normal;font-weight:normal;font-size:40px;line-height:125%;font-family:sans-serif;letter-spacing:0px;word-spacing:0px;fill:#a9a9a9;fill-opacity:1;stroke:#bf1a10;stroke-width:1px;stroke-linecap:butt;stroke-linejoin:miter;stroke-opacity:0.97413791"
     transform="translate(-403.72164,-265.20459)"><flowRegion
       id="flowRegion4386"><rect
         id="rect4388"
         width="910"
         height="328"
         x="722"
         y="626"
         style="fill:#a9a9a9;fill-opacity:1;stroke:#bf1a10;stroke-opacity:0.97413791" /></flowRegion><flowPara
       id="flowPara4390"
       style="font-style:normal;font-variant:normal;font-weight:normal;font-stretch:normal;font-size:125px;line-height:125%;font-family:Misdemeanor;-inkscape-font-specification:'Misdemeanor, Normal';text-align:center;writing-mode:lr-tb;text-anchor:middle;fill:#a9a9a9;fill-opacity:1;stroke:#bf1a10;stroke-opacity:0.97413791">CROSSFIT</flowPara><flowPara
       id="flowPara4392"
       style="font-style:normal;font-variant:normal;font-weight:normal;font-stretch:normal;font-size:125px;line-height:125%;font-family:Misdemeanor;-inkscape-font-specification:'Misdemeanor, Normal';text-align:center;writing-mode:lr-tb;text-anchor:middle;fill:#a9a9a9;fill-opacity:1;stroke:#bf1a10;stroke-opacity:0.97413791">BANDERA ROAD</flowPara></flowRoot>  <path
     inkscape:connector-curvature="0"
     style="fill:#000000;filter:url(#filter5218)"
     d="m 423.152,481.67653 -5.84902,2.8813 -20.44256,-34.9634 c -16.06795,-27.4814 -20.91488,-35.21491 -22.64988,-36.13852 -1.21402,-0.64631 -5.63907,-1.66385 -9.83345,-2.2612 -14.72414,-2.09696 -15.19839,-3.01746 -9.69591,-18.81919 1.86783,-5.36396 0.0301,-9.37264 -4.25421,-9.27964 -3.71374,0.0806 -4.97235,1.19967 -29.20159,25.96399 -9.55215,9.76309 -18.85032,18.77931 -20.6626,20.03604 -1.81228,1.25673 -3.49454,3.01122 -3.73837,3.89892 -0.25038,0.9116 1.18803,4.6082 3.30527,8.4943 3.64625,6.6925 3.70201,6.9787 2.0424,10.4837 -1.82744,3.8594 -5.23608,8.1611 -11.09473,14.0015 -2.00875,2.0025 -5.10519,5.1596 -6.88098,7.0158 -1.77578,1.8562 -3.75496,3.2603 -4.39818,3.1201 -2.07398,-0.4519 -3.72469,-4.4411 -3.07569,-7.433 1.30833,-6.0312 -5.7293,-17.3418 -10.93171,-17.5689 -3.26157,-0.1424 -4.60264,-1.8851 -4.3236,-5.6184 0.30318,-4.0563 16.71184,-21.44213 22.82798,-24.18738 2.7261,-1.22362 2.79379,-1.17736 6.45874,4.41427 2.03708,3.10796 4.01385,5.46651 4.39284,5.24111 0.37898,-0.2253 5.95218,-6.44089 12.38488,-13.81241 6.43271,-7.37151 13.70176,-15.31214 16.15346,-17.64584 7.37455,-7.01961 17.18931,-19.4188 17.20142,-21.73094 0.0185,-3.53521 -4.60714,-3.18342 -27.70557,2.10706 -4.50542,1.03193 -14.04503,3.03805 -21.19913,4.45805 -7.15411,1.42 -15.07836,3.1306 -17.60945,3.80135 l -4.60198,1.21954 1.19818,4.24556 c 0.65901,2.33505 0.94684,5.23408 0.63963,6.44227 -1.32521,5.21195 -16.2029,9.48227 -25.7026,7.3774 -5.26917,-1.16751 -6.31724,-1.84011 -10.57257,-6.78497 -5.79725,-6.73665 -11.66224,-17.90109 -11.48896,-21.87009 0.0694,-1.59038 1.16602,-3.82928 2.43686,-4.9753 2.17853,-1.96458 3.36027,-2.25273 15.32735,-3.73713 1.4898,-0.1848 4.69357,-0.96008 7.11948,-1.72283 l 4.41074,-1.38685 3.67063,5.59772 c 3.13695,4.78388 3.50949,5.86473 2.56216,7.43442 -1.59123,2.63667 -8.24574,4.12807 -9.44196,2.11611 -0.49933,-0.83982 -2.49667,-2.05121 -4.43855,-2.69198 -2.90629,-0.95899 -3.70603,-0.8334 -4.52221,0.71018 -0.79596,1.50533 -0.24802,3.24004 2.77808,8.79494 2.31119,4.24258 4.62264,7.43455 5.97448,8.25039 2.98916,1.80396 6.01792,-0.1402 5.63766,-3.61884 -0.20212,-1.84895 0.39287,-3.14208 1.8422,-4.00379 1.17741,-0.70004 5.67798,-2.06707 10.00127,-3.03785 4.32329,-0.97077 8.48691,-2.14006 9.25249,-2.5984 0.76544,-0.4586 3.47088,-1.29922 6.01176,-1.8686 2.54089,-0.56938 9.01539,-2.00728 14.38779,-3.19534 10.24885,-2.26644 33.45521,-8.67898 38.72756,-10.70147 2.02377,-0.77632 3.53562,-2.10562 4.39365,-3.86152 1.09863,-2.24933 0.90847,-3.34968 -1.1884,-6.87643 -1.63404,-2.74834 -2.62425,-6.06846 -2.86668,-9.61192 -0.3698,-5.40492 -0.39871,-5.46188 -18.63101,-36.71689 -14.8483,-25.45394 -18.52333,-31.25846 -19.66646,-31.06209 -2.02935,0.34859 -92.0203,53.9803 -126.82261,75.58219 l -29.56876,18.35341 9.28008,14.67414 c 6.28737,9.94192 9.20307,15.23589 9.04129,16.41605 -0.28428,2.07371 -12.03924,10.3259 -16.3075,11.44814 -1.55727,0.40946 -3.96204,0.34573 -5.34391,-0.14162 -2.2079,-0.77866 -3.66857,-0.23565 -12.0483,4.47899 l -9.53581,5.36507 -2.35371,-2.33493 -2.35371,-2.33492 -7.21432,3.95178 -7.214322,3.95178 -3.458,-4.34272 c -6.00922,-7.54664 -6.13087,-7.61834 -10.19067,-6.00695 -3.17629,1.26072 -3.95874,1.15532 -5.39209,-0.72634 l -1.67666,-2.20107 -8.87445,4.94605 c -9.68668,5.39872 -10.6533,5.47936 -13.85691,1.15605 -2.61844,-3.53363 -1.98568,-4.50829 6.9897,-10.76637 6.95762,-4.85122 7.27761,-5.2258 7.20269,-8.43148 -0.0461,-1.97216 0.81854,-4.26542 2.09798,-5.56446 2.12536,-2.15794 2.09745,-2.36543 -1.19004,-8.85015 l -3.36641,-6.64041 3.07785,-2.65028 c 1.69283,-1.45765 4.54621,-3.55347 6.34087,-4.65737 2.99967,-1.84515 3.20703,-2.34935 2.56935,-6.24829 l -0.69365,-4.24118 6.04422,-3.72369 c 10.03756,-6.18389 11.51929,-7.60572 12.40779,-11.90621 0.79992,-3.87181 1.02414,-4.09317 8.827892,-8.7156 4.40369,-2.60894 8.74407,-4.72212 9.6448,-4.69676 1.18713,0.0334 3.94357,3.4308 10.01914,12.34877 4.60979,6.76646 9.07346,13.05884 9.91925,13.98306 l 1.5378,1.68041 78.99124,-47.62528 c 64.98667,-39.18167 79.66076,-48.32051 82.76762,-51.54661 l 3.7764,-3.92131 -6.27827,-10.55954 c -6.18873,-10.40894 -6.33077,-10.57114 -9.96036,-11.37147 -3.95541,-0.87219 -14.57155,-0.40454 -16.4724,0.72562 -1.33439,0.79338 -8.38572,-0.95413 -9.16954,-2.27246 -0.76083,-1.27966 -7.84413,-2.48194 -12.24496,-2.07841 -3.51691,0.32248 -3.98461,0.61045 -6.83029,4.20544 -3.01739,3.81191 -7.41655,6.14803 -8.41502,4.46869 -0.27572,-0.46375 -1.08151,-0.49822 -1.79064,-0.0766 -0.70913,0.42162 -1.52239,0.37459 -1.80724,-0.10451 -0.30281,-0.5093 -1.48973,0.43797 -2.85786,2.28087 -1.28698,1.73358 -3.12787,3.62042 -4.09087,4.19298 -2.56761,1.52659 -14.1819,0.12927 -24.95408,-3.00223 -7.16782,-2.08371 -9.51587,-2.35648 -9.82689,-1.14156 -0.40756,1.5921 2.62078,6.14337 6.1495,9.24203 2.41661,2.12209 0.33255,3.27005 -5.64679,3.11044 -4.58109,-0.12229 -12.03119,-2.50774 -13.01857,-4.16842 -0.28377,-0.47728 -2.13954,-1.34695 -4.12392,-1.93259 -3.45921,-1.0209 -3.61873,-0.96904 -3.86878,1.25779 -0.14344,1.27741 0.22554,3.16855 0.81993,4.20252 1.42208,2.47362 1.84089,5.10848 0.90091,5.66736 -0.4142,0.24627 -2.96224,-0.95381 -5.6623,-2.66685 -4.75699,-3.01806 -8.47335,-8.06559 -12.93593,-17.56947 -0.56343,-1.19993 -1.56334,-2.072 -2.22201,-1.93794 -1.24302,0.25299 -3.31879,7.10158 -4.74812,15.66547 -0.95727,5.73555 -2.34699,6.46571 -5.79784,3.04619 -6.18112,-6.125 -5.27777,-22.00529 1.89049,-33.23365 8.78919,-13.76737 9.9516,-15.88556 9.30989,-16.96487 -2.34496,-3.94404 -16.06339,1.32493 -22.87056,8.78413 -5.07799,5.56439 -6.98225,9.18333 -9.05885,17.21594 -2.64456,10.22949 -3.81394,10.70942 -6.38704,2.62128 -2.84422,-8.94037 0.41319,-25.36297 5.64809,-28.47542 0.96281,-0.57245 1.75894,-1.52854 1.76918,-2.12463 0.0259,-1.50795 7.68018,-10.07686 13.65411,-15.28564 6.11171,-5.32892 6.61258,-6.60813 2.9518,-7.53893 -3.95636,-1.00598 -12.44083,1.67302 -20.58729,6.50049 -6.43103,3.81094 -7.94735,5.22837 -13.364552,12.49309 -4.77312,6.40099 -4.86875,6.48675 -5.69116,5.10352 -1.03427,-1.73956 2.92324,-17.32592 4.66163,-18.3595 0.73257,-0.43556 2.17781,-2.25776 3.211652,-4.04935 2.94104,-5.09668 8.85266,-11.50091 15.73938,-17.05093 4.86773,-3.92293 6.18067,-5.46297 5.7278,-6.71859 -0.35204,-0.97605 -1.12962,-1.30673 -1.9399,-0.82497 -0.74379,0.44223 -1.53489,0.49704 -1.75798,0.12181 -0.2231,-0.37523 -3.11973,0.21144 -6.43695,1.30373 -4.78905,1.57692 -6.98191,2.82579 -10.64661,6.06339 -6.963462,6.15193 -13.028262,12.65818 -14.381022,15.42779 -1.48666,3.04377 -2.2892,1.98739 -2.52519,-3.32393 -0.22244,-5.00647 1.58163,-10.07959 6.01163,-16.90493 8.27459,-12.74871 17.923682,-19.5969 31.029022,-22.02201 3.42099,-0.63306 7.49762,-1.6437 9.0592,-2.24588 1.56158,-0.60218 3.42076,-1.01746 4.13151,-0.92284 0.71075,0.0946 4.18397,0.0211 7.71826,-0.16341 3.53429,-0.1845 8.08931,0.0213 10.12229,0.45727 2.03298,0.43599 4.15364,0.52081 4.71257,0.1885 1.29639,-0.77078 11.21921,2.55419 12.11403,4.05921 0.37102,0.62403 0.98974,0.94722 1.37494,0.7182 1.80469,-1.073 8.20549,4.56057 17.65851,15.54189 6.22751,7.23431 7.89146,7.84752 17.30059,6.37562 4.58804,-0.71771 10.41409,-2.22232 12.94678,-3.34358 2.53269,-1.12126 7.51969,-3.29997 11.0822,-4.84157 6.23571,-2.69838 23.55426,-14.28701 24.73566,-16.55176 0.29339,-0.56246 -0.28648,-1.93186 -1.2886,-3.04312 -1.66232,-1.84335 -1.53966,-2.36046 1.39913,-5.89866 4.46098,-5.37088 5.47302,-11.49718 3.28143,-19.86381 -1.74215,-6.65087 -8.91254,-27.010324 -10.38493,-29.486764 -0.4762,-0.80093 -4.04787,-0.32089 -10.50379,1.41175 -11.6451,3.12531 -17.82001,3.49676 -20.09393,1.20877 -2.94725,-2.9655 -2.49883,-4.53035 2.20861,-7.70749 4.37063,-2.94983 4.39125,-2.99367 2.88954,-6.14366 -0.83189,-1.74494 -1.40782,-3.61188 -1.27987,-4.14874 0.12796,-0.53687 2.68763,-1.6723 5.68813,-2.52319 7.02261,-1.99147 10.3196,-3.95864 9.97725,-5.953 -0.18818,-1.09629 0.96932,-2.32142 3.76206,-3.98187 2.21863,-1.3191 4.21614,-3.11519 4.43894,-3.99132 0.30767,-1.21013 1.50506,-1.52358 4.9832,-1.30455 5.28742,0.33305 6.86369,-0.11177 8.91548,-2.51599 0.99575,-1.16681 2.76471,-1.72232 5.392,-1.6932 2.15044,0.0239 4.76751,-0.4645 5.81566,-1.0853 2.39262,-1.41674 5.08327,0.1646 7.66382,4.50488 3.13703,5.27623 6.53938,7.58887 10.60509,7.20824 4.31785,-0.40424 7.24789,0.4771 7.21876,2.17136 -0.0116,0.67478 -2.09395,2.45934 -4.62756,3.96572 -5.92754,3.52427 -6.97844,4.93957 -5.50636,7.41549 1.99516,3.35571 5.45031,5.13668 8.15907,4.20549 1.40047,-0.48142 4.71579,-0.52861 7.3673,-0.10478 6.25835,1.00041 8.53514,4.28033 6.08204,8.76195 -0.92014,1.68102 -1.45144,3.42904 -1.18064,3.88449 0.88799,1.49353 5.93746,5.31794 6.54474,4.95688 0.32645,-0.1941 2.13816,0.83056 4.02602,2.27699 3.17208,2.4304 15.15052,6.09923 16.77,5.13635 1.65816,-0.98587 2.12041,2.382724 0.59119,4.308684 -1.55229,1.95504 -1.46812,2.34374 1.16617,5.3857 1.56157,1.80323 4.80703,6.62902 7.21225,10.72391 4.7454,8.07922 5.86351,12.79413 5.19546,21.91096 -0.43231,5.90137 -7.87773,24.89998 -10.32933,26.3576 -0.93287,0.55465 -1.84857,1.58862 -2.03486,2.29769 -0.41529,1.58054 -8.21204,14.84807 -11.24806,19.14047 -5.58945,7.90249 -12.27068,19.16338 -13.58689,22.90002 l -1.24727,3.54098 5.51598,3.53492 c 7.27027,4.65918 14.41719,8.61534 20.87149,11.55341 2.88903,1.31512 5.46843,2.75382 5.73199,3.1971 0.26356,0.4433 1.975,1.0017 3.80319,1.24092 2.53302,0.33143 4.5762,-0.30632 8.58626,-2.68011 2.89399,-1.71366 11.39671,-6.00558 18.89427,-9.53844 7.49756,-3.53285 19.67407,-9.90928 27.05891,-14.16983 7.38483,-4.26056 18.62663,-10.44802 24.98177,-13.74991 42.81873,-22.24701 57.21033,-30.27359 57.66453,-32.16106 0.29323,-1.21876 -1.96566,-6.98162 -6.36418,-16.23595 -3.75043,-7.89053 -6.76209,-14.55945 -6.69266,-14.81975 0.19941,-0.74766 6.23762,-4.7456 12.05823,-7.98382 4.24419,-2.36121 6.07536,-2.83323 9.00197,-2.32042 3.63462,0.63679 4.98796,0.14107 19.49386,-7.1403 2.72982,-1.37027 3.42761,-1.22707 6.34631,1.30216 l 3.27933,2.84166 6.11526,-3.06784 c 3.36339,-1.6873 6.71627,-3.05749 7.45088,-3.04489 0.7895,0.0135 2.78464,2.45989 4.87889,5.98225 l 3.54319,5.95935 4.11095,-0.39728 c 2.33077,-0.2252 4.68738,0.26677 5.44204,1.13629 2.30444,2.65486 3.76533,2.39365 12.58205,-2.24949 l 8.59576,-4.52678 2.36304,4.09576 c 1.29975,2.25261 2.24536,4.56001 2.10095,5.12779 -0.14434,0.56772 -4.15443,3.18433 -8.9113,5.81465 -8.11182,4.48544 -8.64913,4.94068 -8.65383,7.33195 -0.003,1.40222 -1.22256,4.24388 -2.71076,6.31474 -2.64508,3.68068 -2.65059,3.85809 -0.2461,7.90225 1.44231,2.42585 2.3725,5.30412 2.2488,6.95868 -0.18452,2.46921 -0.71711,3.02828 -4.26404,4.47615 -6.73128,2.74773 -9.32187,5.65106 -8.3702,9.38083 l 0.81795,3.20568 -9.46295,5.62628 c -8.64174,5.13802 -9.58135,5.93472 -10.82868,9.18147 -1.29349,3.36713 -1.81585,3.7806 -9.87488,7.81632 -4.67992,2.34355 -9.23592,4.14648 -10.12445,4.0065 -2.13351,-0.33627 -5.41444,-5.99816 -10.94277,-18.88405 -4.05255,-9.44613 -4.75357,-10.62107 -6.619,-11.09544 -1.6065,-0.40852 -5.48394,1.28514 -16.85779,7.36342 -86.51986,46.23693 -107.76697,57.992 -108.94356,60.27349 -0.76081,1.47527 -1.92552,2.22173 -4.30304,2.75783 -3.72936,0.84091 -43.10327,23.04967 -44.0365,24.83869 -0.42934,0.82305 4.99289,10.99754 17.95733,33.69589 l 18.57238,32.51683 3.96319,1.37295 c 3.32298,1.15116 4.35085,2.0983 6.36297,5.8633 1.93177,3.61462 2.9856,4.6393 5.40359,5.25411 l 3.00378,0.76376 7.53543,-7.66006 c 4.14444,-4.213 8.31104,-8.12121 9.25908,-8.68487 1.52616,-0.90739 13.47446,-13.16324 26.87557,-27.56731 2.53753,-2.72746 6.64358,-6.78348 9.12463,-9.01342 7.30406,-6.56488 7.75006,-7.60986 5.12896,-12.01834 -1.83576,-3.0876 -2.64246,-3.70182 -4.25194,-3.23793 -1.6033,0.46215 -2.41618,-0.15033 -4.21474,-3.17535 -2.64158,-4.44294 -1.85305,-6.86268 3.93724,-12.08144 2.05869,-1.8555 6.97428,-7.1399 10.92346,-11.74311 4.13287,-4.8173 7.69214,-8.23932 8.38621,-8.06284 2.35594,0.59904 6.09243,6.43464 6.65229,10.38948 0.92197,6.51239 -3.06614,12.35958 -7.73849,11.34597 -4.92551,-1.06844 -6.55314,1.79854 -3.11832,5.49267 0.93273,1.00308 1.6266,0.76066 3.84993,-1.34505 5.03623,-4.76979 7.39042,-2.12614 3.02156,3.39314 -3.3973,4.29184 -2.88202,8.01144 1.22456,8.84032 2.84542,0.57427 6.56262,6.05377 5.71021,8.41716 -0.30201,0.8373 -2.47543,3.56566 -4.82983,6.06302 -2.35439,2.49736 -4.52201,5.18227 -4.81695,5.96649 -0.29486,0.78417 -1.69733,1.94747 -3.1166,2.58511 -3.66351,1.64589 -6.53597,-2.3244 -5.63647,-7.79063 0.86801,-5.27461 -0.76909,-7.97191 -3.75946,-6.19396 -2.16778,1.28888 -7.75919,7.27281 -14.84655,15.88868 -3.09132,3.75805 -8.93835,10.16754 -17.25636,18.91639 -9.8477,10.35774 -19.78542,22.17002 -20.63911,24.5323 -0.76741,2.12348 -0.5948,2.90681 0.80327,3.64552 2.09673,1.10785 14.12563,-0.63382 24.32458,-3.52197 5.36195,-1.51842 21.65885,-5.13697 21.83103,-4.84736 0.27515,0.46276 18.33095,-3.93041 19.87003,-4.83459 1.2091,-0.71074 2.764,-1.1774 3.45492,-1.03771 0.69094,0.1397 3.71037,-0.24295 6.70977,-0.85026 4.03437,-0.81687 5.55523,-1.50475 5.84486,-2.64366 0.62148,-2.44419 -2.03905,-5.99149 -5.62316,-7.49725 -3.76378,-1.58135 -6.22595,-5.00615 -4.8515,-6.74823 1.33749,-1.69524 4.06223,-2.44537 16.97725,-4.6741 13.47212,-2.32491 20.84709,-1.3617 23.47993,3.06652 1.07265,1.80411 1.2608,3.82822 0.5727,6.15976 l -1.02484,3.47264 4.62099,4.22259 c 4.79278,4.37965 5.44593,4.51295 7.27374,1.48428 1.71164,-2.83623 5.34977,-1.47365 6.95815,2.60613 1.93799,4.91573 1.00652,7.73062 -3.11199,9.40411 -7.32604,2.97681 -16.2887,-0.47813 -19.0071,-7.32672 -1.69108,-4.26056 -6.41735,-6.73421 -8.30218,-4.34523 -1.36436,1.72931 0.0639,4.23679 4.13467,7.25885 3.63806,2.70088 5.73417,5.84539 4.92736,7.39202 -0.56877,1.09032 -10.27588,3.5125 -12.57011,3.1366 -0.67349,-0.11036 -2.06912,0.30152 -3.10126,0.91519 -3.21833,1.91349 -8.43231,-4.81883 -7.09475,-9.16086 1.68937,-5.48418 -1.02899,-5.86763 -15.8738,-2.23913 -5.0281,1.22903 -9.70628,2.12203 -10.39596,1.98445 -0.68968,-0.13759 -2.48604,0.48239 -3.99179,1.37766 -2.69839,1.60434 -6.30841,2.63361 -21.16731,6.03514 -4.14736,0.94943 -8.19289,2.11402 -8.99006,2.58799 -0.79717,0.47396 -2.01638,0.74465 -2.70935,0.60152 -2.25051,-0.4648 -18.48335,4.86997 -21.62083,7.10549 -2.90314,2.06855 -2.96869,2.34477 -1.34496,5.66728 1.3737,2.81089 2.4561,3.70042 5.54441,4.55648 2.11062,0.58505 4.16949,0.86632 4.57528,0.62506 1.31192,-0.78001 7.30627,1.19359 9.0219,2.97041 2.10673,2.18185 2.03165,2.79944 -1.37647,11.32199 -1.54385,3.86063 -3.21523,8.83562 -3.7142,11.05551 l -0.90721,4.03618 20.03401,34.79451 c 17.68758,30.7193 19.91616,34.9621 19.02779,36.2249 -0.55341,0.7867 -3.63826,2.727 -6.85522,4.3117 z"
     id="path5123" />
</svg>
